# xmcd CD database file
#
# Track frame offsets:
#	150
#	21304
#	31132
#	46154
#	66050
#	77110
#	93233
#	108929
#
# Disc length: 1672 seconds
#
# Revision: 0
# Processed by: cddbd v1.5.2PL0 Copyright (c) Steve Scherf et al.
# Submitted via: CDex 1.70beta2
#
DISCID=57068608
DTITLE=2nd Bridge Blues Band - Bleib im Bett!
DYEAR=2013
DGENRE=Blues
TTITLE0=Ich bleib' im Bett
TTITLE1=Ich will nur dich
TTITLE2=Sanfte Art
TTITLE3=Ü-40 Blues
TTITLE4=Geisterfahrer
TTITLE5=Warum tust du mir das an?
TTITLE6=Es kennt dich keiner
TTITLE7=Schau beim Buch nicht nur aufs bunte Cover
EXTD=YEAR: 2013
EXTT0=
EXTT1=
EXTT2=
EXTT3=
EXTT4=
EXTT5=
EXTT6=
EXTT7=
PLAYORDER=
